<mxfile host="app.diagrams.net" modified="2021-04-26T05:12:59.306Z" agent="5.0 (Windows NT 10.0; Win64; x64) AppleWebKit/537.36 (KHTML, like Gecko) Chrome/90.0.4430.85 Safari/537.36" etag="Y9ON0FvacdWyS1tYZgyg" version="14.6.6" type="github">
  <diagram id="Az_o7xjclKsXQhINt3C_" name="Page-1">
    <mxGraphModel dx="2062" dy="1161" grid="1" gridSize="10" guides="1" tooltips="1" connect="1" arrows="1" fold="1" page="1" pageScale="1" pageWidth="827" pageHeight="1169" math="0" shadow="0">
      <root>
        <mxCell id="0" />
        <mxCell id="1" parent="0" />
        <mxCell id="te5Lnjg2BfOj6QI-0gv--1" value="" style="shape=table;html=1;whiteSpace=wrap;startSize=0;container=1;collapsible=0;childLayout=tableLayout;" vertex="1" parent="1">
          <mxGeometry x="354" y="400" width="120" height="270" as="geometry" />
        </mxCell>
        <mxCell id="te5Lnjg2BfOj6QI-0gv--20" style="shape=partialRectangle;html=1;whiteSpace=wrap;collapsible=0;dropTarget=0;pointerEvents=0;fillColor=none;top=0;left=0;bottom=0;right=0;points=[[0,0.5],[1,0.5]];portConstraint=eastwest;" vertex="1" parent="te5Lnjg2BfOj6QI-0gv--1">
          <mxGeometry width="120" height="45" as="geometry" />
        </mxCell>
        <mxCell id="te5Lnjg2BfOj6QI-0gv--21" style="shape=partialRectangle;html=1;whiteSpace=wrap;connectable=0;fillColor=none;top=0;left=0;bottom=0;right=0;overflow=hidden;" vertex="1" parent="te5Lnjg2BfOj6QI-0gv--20">
          <mxGeometry width="120" height="45" as="geometry" />
        </mxCell>
        <mxCell id="te5Lnjg2BfOj6QI-0gv--2" value="" style="shape=partialRectangle;html=1;whiteSpace=wrap;collapsible=0;dropTarget=0;pointerEvents=0;fillColor=none;top=0;left=0;bottom=0;right=0;points=[[0,0.5],[1,0.5]];portConstraint=eastwest;" vertex="1" parent="te5Lnjg2BfOj6QI-0gv--1">
          <mxGeometry y="45" width="120" height="45" as="geometry" />
        </mxCell>
        <mxCell id="te5Lnjg2BfOj6QI-0gv--14" style="shape=partialRectangle;html=1;whiteSpace=wrap;connectable=0;fillColor=none;top=0;left=0;bottom=0;right=0;overflow=hidden;" vertex="1" parent="te5Lnjg2BfOj6QI-0gv--2">
          <mxGeometry width="120" height="45" as="geometry" />
        </mxCell>
        <mxCell id="te5Lnjg2BfOj6QI-0gv--6" value="" style="shape=partialRectangle;html=1;whiteSpace=wrap;collapsible=0;dropTarget=0;pointerEvents=0;fillColor=none;top=0;left=0;bottom=0;right=0;points=[[0,0.5],[1,0.5]];portConstraint=eastwest;" vertex="1" parent="te5Lnjg2BfOj6QI-0gv--1">
          <mxGeometry y="90" width="120" height="45" as="geometry" />
        </mxCell>
        <mxCell id="te5Lnjg2BfOj6QI-0gv--15" value="RAS4" style="shape=partialRectangle;html=1;whiteSpace=wrap;connectable=0;fillColor=none;top=0;left=0;bottom=0;right=0;overflow=hidden;" vertex="1" parent="te5Lnjg2BfOj6QI-0gv--6">
          <mxGeometry width="120" height="45" as="geometry" />
        </mxCell>
        <mxCell id="te5Lnjg2BfOj6QI-0gv--30" style="shape=partialRectangle;html=1;whiteSpace=wrap;collapsible=0;dropTarget=0;pointerEvents=0;fillColor=none;top=0;left=0;bottom=0;right=0;points=[[0,0.5],[1,0.5]];portConstraint=eastwest;" vertex="1" parent="te5Lnjg2BfOj6QI-0gv--1">
          <mxGeometry y="135" width="120" height="45" as="geometry" />
        </mxCell>
        <mxCell id="te5Lnjg2BfOj6QI-0gv--31" value="RAS3" style="shape=partialRectangle;html=1;whiteSpace=wrap;connectable=0;fillColor=none;top=0;left=0;bottom=0;right=0;overflow=hidden;" vertex="1" parent="te5Lnjg2BfOj6QI-0gv--30">
          <mxGeometry width="120" height="45" as="geometry" />
        </mxCell>
        <mxCell id="te5Lnjg2BfOj6QI-0gv--32" style="shape=partialRectangle;html=1;whiteSpace=wrap;collapsible=0;dropTarget=0;pointerEvents=0;fillColor=none;top=0;left=0;bottom=0;right=0;points=[[0,0.5],[1,0.5]];portConstraint=eastwest;" vertex="1" parent="te5Lnjg2BfOj6QI-0gv--1">
          <mxGeometry y="180" width="120" height="45" as="geometry" />
        </mxCell>
        <mxCell id="te5Lnjg2BfOj6QI-0gv--33" value="RAS2" style="shape=partialRectangle;html=1;whiteSpace=wrap;connectable=0;fillColor=none;top=0;left=0;bottom=0;right=0;overflow=hidden;" vertex="1" parent="te5Lnjg2BfOj6QI-0gv--32">
          <mxGeometry width="120" height="45" as="geometry" />
        </mxCell>
        <mxCell id="te5Lnjg2BfOj6QI-0gv--34" style="shape=partialRectangle;html=1;whiteSpace=wrap;collapsible=0;dropTarget=0;pointerEvents=0;fillColor=none;top=0;left=0;bottom=0;right=0;points=[[0,0.5],[1,0.5]];portConstraint=eastwest;" vertex="1" parent="te5Lnjg2BfOj6QI-0gv--1">
          <mxGeometry y="225" width="120" height="45" as="geometry" />
        </mxCell>
        <mxCell id="te5Lnjg2BfOj6QI-0gv--35" value="RAS1" style="shape=partialRectangle;html=1;whiteSpace=wrap;connectable=0;fillColor=none;top=0;left=0;bottom=0;right=0;overflow=hidden;" vertex="1" parent="te5Lnjg2BfOj6QI-0gv--34">
          <mxGeometry width="120" height="45" as="geometry" />
        </mxCell>
        <mxCell id="te5Lnjg2BfOj6QI-0gv--36" value="&lt;font style=&quot;font-size: 18px&quot;&gt;RAS&lt;/font&gt;" style="text;html=1;strokeColor=none;fillColor=none;align=center;verticalAlign=middle;whiteSpace=wrap;rounded=0;" vertex="1" parent="1">
          <mxGeometry x="394" y="360" width="40" height="20" as="geometry" />
        </mxCell>
        <mxCell id="te5Lnjg2BfOj6QI-0gv--37" value="" style="shape=singleArrow;whiteSpace=wrap;html=1;gradientColor=none;" vertex="1" parent="1">
          <mxGeometry x="84" y="505" width="210" height="60" as="geometry" />
        </mxCell>
        <mxCell id="te5Lnjg2BfOj6QI-0gv--38" value="Push on jal" style="text;html=1;strokeColor=none;fillColor=none;align=center;verticalAlign=middle;whiteSpace=wrap;rounded=0;" vertex="1" parent="1">
          <mxGeometry x="124" y="500" width="100" height="20" as="geometry" />
        </mxCell>
        <mxCell id="te5Lnjg2BfOj6QI-0gv--39" value="" style="shape=singleArrow;whiteSpace=wrap;html=1;gradientColor=none;" vertex="1" parent="1">
          <mxGeometry x="524" y="505" width="220" height="60" as="geometry" />
        </mxCell>
        <mxCell id="te5Lnjg2BfOj6QI-0gv--40" value="Pop on jalr" style="text;html=1;strokeColor=none;fillColor=none;align=center;verticalAlign=middle;whiteSpace=wrap;rounded=0;" vertex="1" parent="1">
          <mxGeometry x="564" y="500" width="100" height="20" as="geometry" />
        </mxCell>
        <mxCell id="te5Lnjg2BfOj6QI-0gv--42" value="" style="endArrow=classic;html=1;" edge="1" parent="1">
          <mxGeometry width="50" height="50" relative="1" as="geometry">
            <mxPoint x="544" y="470" as="sourcePoint" />
            <mxPoint x="474" y="470" as="targetPoint" />
          </mxGeometry>
        </mxCell>
        <mxCell id="te5Lnjg2BfOj6QI-0gv--43" value="Pointer" style="text;html=1;strokeColor=none;fillColor=none;align=center;verticalAlign=middle;whiteSpace=wrap;rounded=0;" vertex="1" parent="1">
          <mxGeometry x="564" y="458" width="40" height="20" as="geometry" />
        </mxCell>
        <mxCell id="te5Lnjg2BfOj6QI-0gv--46" value="PC+4 for&amp;nbsp;&lt;br&gt;jal" style="rounded=0;whiteSpace=wrap;html=1;gradientColor=none;" vertex="1" parent="1">
          <mxGeometry x="30" y="414" width="40" height="242" as="geometry" />
        </mxCell>
        <mxCell id="te5Lnjg2BfOj6QI-0gv--47" value="RAS&lt;br&gt;for&amp;nbsp;&lt;br&gt;location&lt;br&gt;at&lt;br&gt;pointer - 1" style="rounded=0;whiteSpace=wrap;html=1;gradientColor=none;" vertex="1" parent="1">
          <mxGeometry x="750" y="420" width="60" height="236" as="geometry" />
        </mxCell>
      </root>
    </mxGraphModel>
  </diagram>
</mxfile>
